Screen

 
http://bayimg.com/bApMGaadb


Seeding Time 24/7

Don't Forget To Say Thanks If You Like My Post



-=Media Info=-


Format : MPEG-4
Format profile : Base Media
Codec ID : isom
File size : 1.38 GiB
Duration : 21mn 29s
Overall bit rate mode : Variable
Overall bit rate : 9 192 Kbps
Writing application : Lavf52.16.0
Comment : FlixEngineLinux_8.0.14.0 (www.on2.com)

Video
ID : 1
Format : AVC
Format/Info : Advanced Video Codec
Format profile : Baseline@L4.0
Format settings, CABAC : No
Format settings, ReFrames : 1 frame
Format settings, GOP : M=1, N=20
Codec ID : avc1
Codec ID/Info : Advanced Video Coding
Duration : 21mn 29s
Bit rate : 9 058 Kbps
Width : 1 920 pixels
Height : 1 080 pixels
Display aspect ratio : 16:9
Color space : YUV
Chroma subsampling : 40
Bit depth : 8 bits
Scan type : Progressive
Stream size : 1.36 GiB (99%)

Audio
ID : 2
Format : AAC
Format/Info : Advanced Audio Codec
Format profile : LC
Codec ID : 40
Duration : 21mn 29s
Bit rate mode : Variable
Bit rate : 128 Kbps
Channel(s) : 2 channels
Channel positions : Front: L R
Sampling rate : 48.0 KHz
Compression mode : Lossy
Stream size : 19.7 MiB (1%)